<svg width="16" height="16" viewBox="0 0 16 16" fill="none" xmlns="http://www.w3.org/2000/svg">
<path d="M4.89573 12.0283L3.93011 11.0627C3.66448 10.7971 3.57073 10.4127 3.68948 10.0565C3.78323 9.77834 3.90823 9.41584 4.05823 9.00021H0.751983C0.483233 9.00021 0.233233 8.85646 0.0988584 8.62209C-0.0355166 8.38771 -0.0323916 8.10021 0.105108 7.86896L1.74573 5.10334C2.15198 4.41896 2.88636 4.00021 3.68011 4.00021H6.25198C6.32698 3.87521 6.40198 3.75959 6.47698 3.64709C9.03636 -0.127912 12.8489 -0.252912 15.1239 0.165838C15.4864 0.231463 15.7676 0.515838 15.8364 0.878338C16.2551 3.15646 16.127 6.96584 12.3551 9.52521C12.2457 9.60021 12.127 9.67521 12.002 9.75021V12.3221C12.002 13.1158 11.5832 13.8533 10.8989 14.2565L8.13323 15.8971C7.90198 16.0346 7.61448 16.0377 7.38011 15.9033C7.14573 15.769 7.00198 15.5221 7.00198 15.2502V11.9002C6.56136 12.0533 6.17698 12.1783 5.88636 12.2721C5.53636 12.3846 5.15511 12.2877 4.89261 12.0283H4.89573ZM12.002 5.25021C12.6919 5.25021 13.252 4.69011 13.252 4.00021C13.252 3.31032 12.6919 2.75021 12.002 2.75021C11.3121 2.75021 10.752 3.31032 10.752 4.00021C10.752 4.69011 11.3121 5.25021 12.002 5.25021Z" fill="#404040"/>
</svg>
